<?xml version="1.0" encoding="UTF-8"?>
<!DOCTYPE svg PUBLIC "-//W3C//DTD SVG 1.1//EN" "http://www.w3.org/Graphics/SVG/1.1/DTD/svg11.dtd">
<!-- Creator: CorelDRAW X7 -->
<svg xmlns="http://www.w3.org/2000/svg" xml:space="preserve" width="13.423in" height="1.02002in" version="1.1" style="shape-rendering:geometricPrecision; text-rendering:geometricPrecision; image-rendering:optimizeQuality; fill-rule:evenodd; clip-rule:evenodd"
viewBox="0 0 17635 1340"
 xmlns:xlink="http://www.w3.org/1999/xlink">
 <defs>
  <style type="text/css">
   <![CDATA[
    .fil114 {fill:#333333}
    .fil106 {fill:#3E3E3E}
    .fil20 {fill:#404040}
    .fil95 {fill:#414141}
    .fil28 {fill:#424242}
    .fil13 {fill:#434343}
    .fil112 {fill:#454545}
    .fil105 {fill:#474747}
    .fil87 {fill:#4B4B4B}
    .fil63 {fill:#4C4C4C}
    .fil76 {fill:#4D4D4D}
    .fil78 {fill:#4E4E4E}
    .fil70 {fill:#515151}
    .fil68 {fill:#535353}
    .fil75 {fill:#555555}
    .fil53 {fill:#575757}
    .fil99 {fill:#595959}
    .fil5 {fill:#5B5B5B}
    .fil85 {fill:#5C5C5C}
    .fil67 {fill:#5D5D5D}
    .fil90 {fill:#5E5E5E}
    .fil73 {fill:#616161}
    .fil69 {fill:#646464}
    .fil88 {fill:#656565}
    .fil7 {fill:#686868}
    .fil92 {fill:dimgray}
    .fil97 {fill:#6A6A6A}
    .fil52 {fill:#6B6B6B}
    .fil74 {fill:#707070}
    .fil61 {fill:#717171}
    .fil29 {fill:#737373}
    .fil41 {fill:#747474}
    .fil57 {fill:#767676}
    .fil40 {fill:#777777}
    .fil11 {fill:#787878}
    .fil4 {fill:#7B7B7B}
    .fil64 {fill:#7C7C7C}
    .fil24 {fill:#7D7D7D}
    .fil59 {fill:#7E7E7E}
    .fil58 {fill:#7F7F7F}
    .fil34 {fill:gray}
    .fil46 {fill:#838383}
    .fil33 {fill:#848484}
    .fil82 {fill:#858585}
    .fil101 {fill:#878787}
    .fil48 {fill:#898989}
    .fil60 {fill:#8A8A8A}
    .fil104 {fill:#909090}
    .fil45 {fill:#919191}
    .fil89 {fill:#929292}
    .fil50 {fill:#939393}
    .fil65 {fill:#949494}
    .fil102 {fill:#969696}
    .fil109 {fill:#979797}
    .fil18 {fill:#989898}
    .fil72 {fill:#999999}
    .fil62 {fill:#9A9A9A}
    .fil43 {fill:#9B9B9B}
    .fil77 {fill:#9D9D9D}
    .fil54 {fill:#9E9E9E}
    .fil26 {fill:#9F9F9F}
    .fil81 {fill:#A1A1A1}
    .fil31 {fill:#A2A2A2}
    .fil91 {fill:#A4A4A4}
    .fil71 {fill:#A5A5A5}
    .fil21 {fill:#A6A6A6}
    .fil17 {fill:#A7A7A7}
    .fil86 {fill:#A8A8A8}
    .fil47 {fill:darkgray}
    .fil108 {fill:#AAAAAA}
    .fil83 {fill:#ABABAB}
    .fil93 {fill:#ACACAC}
    .fil25 {fill:#ADADAD}
    .fil98 {fill:#AFAFAF}
    .fil56 {fill:#B1B1B1}
    .fil103 {fill:#B3B3B3}
    .fil107 {fill:#B4B4B4}
    .fil94 {fill:#B5B5B5}
    .fil110 {fill:#B6B6B6}
    .fil55 {fill:#B7B7B7}
    .fil113 {fill:#B8B8B8}
    .fil96 {fill:#B9B9B9}
    .fil39 {fill:#BCBCBC}
    .fil51 {fill:#BEBEBE}
    .fil19 {fill:silver}
    .fil44 {fill:#C2C2C2}
    .fil49 {fill:#C3C3C3}
    .fil30 {fill:#C4C4C4}
    .fil66 {fill:#C5C5C5}
    .fil22 {fill:#C7C7C7}
    .fil12 {fill:#C8C8C8}
    .fil36 {fill:#C9C9C9}
    .fil100 {fill:#CBCBCB}
    .fil9 {fill:#CCCCCC}
    .fil15 {fill:#CFCFCF}
    .fil10 {fill:#D0D0D0}
    .fil42 {fill:#D1D1D1}
    .fil84 {fill:#D6D6D6}
    .fil38 {fill:#D9D9D9}
    .fil23 {fill:#DADADA}
    .fil35 {fill:#DDDDDD}
    .fil14 {fill:#E0E0E0}
    .fil27 {fill:#E1E1E1}
    .fil37 {fill:#E2E2E2}
    .fil111 {fill:#E8E8E8}
    .fil32 {fill:#EDEDED}
    .fil80 {fill:#EFEFEF}
    .fil79 {fill:#F3F3F3}
    .fil6 {fill:whitesmoke}
    .fil2 {fill:#F7F7F7}
    .fil8 {fill:#F8F8F8}
    .fil1 {fill:#FAFAFA}
    .fil16 {fill:#FBFBFB}
    .fil0 {fill:#FCFCFC}
    .fil3 {fill:#FDFDFD}
    .fil115 {fill:#4D4D4D;fill-rule:nonzero}
   ]]>
  </style>
 </defs>
 <g id="Layer_x0020_1">
  <metadata id="CorelCorpID_0Corel-Layer"/>
  <path class="fil0" d="M2257 1104c-49,-39 -18,-185 -14,-194 57,23 19,181 14,194zm-1137 2c15,-34 31,-67 46,-106l50 -94 73 195c-6,0 -14,-1 -17,-2l-78 -44c-4,3 -8,8 -10,10l-64 41zm-233 -57c-4,5 -15,20 -19,24 -2,4 -2,61 -20,24 -1,-4 -7,9 -16,14l-3 -124 58 62zm1442 61c21,-63 51,-132 83,-199 31,24 9,-40 55,101 11,34 22,56 28,89 -89,-1 -1,-4 -86,-50 -101,45 24,13 -80,59zm-474 -203l74 204c-94,-40 -6,-8 -79,-63 -111,43 3,47 -86,51l91 -192zm-1168 123c39,-62 106,-35 141,19 -27,52 -9,36 -63,53 17,-65 36,-57 -17,-96 -36,64 -33,27 -1,95 -64,-11 -52,0 -60,-71zm993 -113c29,51 28,125 17,188 -35,-41 -27,-29 -32,-105 -4,-68 -14,-27 15,-83zm-165 51l18 -53 17 60c34,28 60,65 68,107 -63,-14 -30,-17 -73,-81 -39,68 9,-25 -16,87l-17 42c-6,-14 -68,-18 3,-162zm490 -53l104 112c50,-66 -16,-62 36,-130 43,56 23,39 14,209l-37 -17c-22,-21 -8,-4 -14,-37 -54,-22 -54,-29 -88,-83 -2,79 16,91 -21,157 -21,-43 -12,-10 -20,-57l6 -113c10,-42 2,-13 20,-41zm-1002 38c-3,-3 -9,-6 -11,-7 -79,-42 -39,1 -50,-38 57,-7 131,-14 176,12 -76,43 69,-31 -35,13 -43,19 4,-12 -35,19 1,164 15,104 -22,165 -40,-60 -24,-66 -23,-164zm326 -32c57,-29 76,-31 123,2 -88,37 -13,-32 -88,16 20,81 27,19 95,93 -18,77 -86,116 -125,44 75,12 28,29 80,-11 -45,-73 -93,-27 -85,-144zm-1112 -295l283 -6c67,67 6,85 39,172 35,88 69,4 87,122 -8,88 -114,39 -103,162l-74 -6c-9,54 19,-30 2,34l-201 5 7 -40c-5,4 -26,22 -28,23 -32,19 -4,7 -43,15 -37,-130 46,-45 -41,-126 -120,-112 8,-138 34,-202 33,-84 -24,-95 38,-153zm1838 195c-21,-45 -22,-152 0,-197 32,42 31,155 0,197zm-1252 -3c-126,12 -129,-125 -92,-194 37,45 21,73 23,145 42,39 25,24 69,49zm145 4c-28,-44 -15,-130 -11,-191 49,22 110,100 137,121 15,-77 -11,-92 14,-130 30,41 17,133 6,199l-137 -118c-7,74 19,83 -9,119zm1478 0c-39,-39 -28,-50 -29,-52 -7,-22 3,-16 -12,-54 -22,-52 -30,-29 -43,-88 73,8 16,16 85,73 34,-57 18,-62 66,-73 -73,104 -45,66 -67,194zm-206 4c-42,-52 -17,-69 -28,-170 -56,-39 -30,40 -59,-36l172 8c-24,67 -1,-6 -62,27 -14,136 20,104 -23,171zm-361 -200c68,-14 63,-26 115,15 -74,32 -11,-29 -87,17 49,111 86,-24 96,136 -48,33 -96,63 -125,-1 83,7 23,30 87,-15l-102 -62 16 -90zm-1859 572l2543 -17 -9 -644 -14 -28 -742 118c15,37 29,66 -10,109l44 89c-71,-19 -34,-7 -81,-76 -45,87 27,46 -51,71l0 -199 93 3 -261 -2 102 6c-20,49 1,12 -69,15l-4 52c48,35 2,-8 66,33 -76,6 -67,-11 -63,78l77 0c-47,29 -62,19 -126,13l9 -196 -69 -11c-8,62 -46,162 -88,207 -35,-55 -73,-133 -74,-193 68,21 42,61 94,131l36 -144 -199 10c16,60 22,154 -9,200 -27,-47 -20,-139 -8,-199l-1187 -98 0 672z"/>
  <path class="fil1" d="M6046 992c42,66 16,35 1,63 -21,-30 -64,-11 -1,-63zm-346 66l-5 -64 71 9c-11,44 18,43 -66,55zm-119 -67l91 1c-10,64 -4,57 -72,80l-19 -81zm681 -70l66 -29c29,45 7,-17 29,62 93,-95 2,-39 90,-43 -2,33 28,-10 -6,38 -18,25 -6,32 -68,16 2,63 10,73 -60,94 -23,-127 53,-73 -58,-105 -21,9 -28,25 -53,13 -71,-32 -19,-19 -25,-48 80,-34 35,-22 85,2zm-280 -12l42 44c-78,-22 -43,16 -42,-44zm-111 54l-9 -61 69 62 -60 -1zm-67 -61c46,59 21,26 0,64 -13,-20 -63,-13 0,-64zm114 -239c41,51 25,147 1,197 -22,-51 -38,-148 -1,-197zm-450 -3c54,81 -32,95 57,176 117,-51 4,-96 72,-173l-2 168c-175,96 -175,-118 -127,-171zm749 13l81 171c-56,-23 -40,-10 -70,-75 -18,-39 -39,-55 -11,-96zm-543 188c-28,-64 -16,-115 -8,-194 78,21 82,62 137,113 0,-97 -29,-47 23,-115l4 185c-81,-11 -92,-43 -140,-106 -5,83 16,40 -16,117zm309 -195l155 -5c-22,68 17,-5 -52,31 -4,63 9,124 -20,161 -48,-40 -28,-92 -29,-170 -60,-6 -46,21 -54,-17zm-825 -14c44,-47 46,-41 105,-54l-5 105 -88 30 -12 -81zm-221 -65c75,29 162,46 200,119 42,74 -3,35 29,88 75,-73 107,-58 195,-102 7,123 11,136 -35,248l-4 45 -107 141 1332 18 -53 -319c-25,60 -74,-2 -97,-43 -3,6 -17,38 -21,42 -24,28 1,10 -36,27 0,-44 -16,-165 16,-186l199 -119 -1618 41z"/>
  <path class="fil2" d="M11438 863l-1 -101c103,50 45,13 90,22l-7 99 -62 -22c-72,-1 42,36 -20,2zm-108 -94l16 23 5 -23c42,-22 -49,-31 77,-17 20,69 31,74 -12,129 82,16 74,-4 106,41 -26,43 -18,29 -77,43 23,35 -6,9 35,28l4 76c29,-63 -8,-46 41,-66l10 132c-105,14 -25,-12 -138,-58 -6,6 -26,45 -66,16 -31,-22 -7,0 -24,-38 -2,-5 -6,-32 -9,-38 -49,53 -55,114 -105,72 -2,-2 -15,-19 -18,-20l-56 24 4 -54 -49 58c-49,-68 -55,-119 -25,-212l96 -5c-73,-23 15,34 -109,-1l-5 -110c122,-45 48,25 113,-6l52 0c-25,39 -24,72 -12,104 54,-33 30,-26 51,-103 -31,-55 -5,-4 -54,-61 30,-270 292,-97 158,57 -2,2 -6,6 -9,9zm-333 -225c-187,9 -199,471 -45,640 92,100 197,130 342,127 105,-1 291,-37 299,-153 15,-92 207,-325 -24,-573 -242,-259 -482,-54 -572,-41z"/>
  <path class="fil0" d="M13569 1172c104,-127 22,-33 60,-97 72,36 110,29 181,45 21,5 168,-25 203,-32l-7 64c-60,9 -145,-25 -210,40 -67,-65 -151,-32 -227,-20zm-273 -101l39 50c57,-86 -40,-8 217,-33 11,146 3,5 -173,73l-123 152 258 -3 -64 -16 -4 -64c43,-16 75,-22 129,1l30 89 9 -24 -8 -76c61,-3 82,-16 114,52 4,-10 19,-77 84,-38 1,0 5,2 6,3 2,2 5,7 6,9 27,43 -9,-53 9,30 -58,62 1,10 -68,25l283 10 -23 -865 -343 49 0 30 51 126c64,41 222,305 235,379 -119,23 -414,24 -526,-6 34,-42 94,-64 153,-70 21,-76 58,-44 88,-133 -67,100 -203,205 -328,209l-41 -10 238 -424c86,-155 30,-111 119,-126l-395 -8 28 609z"/>
  <path class="fil3" d="M15908 1065l30 -58c5,0 14,-4 17,4l30 14c41,28 12,30 48,34 30,-28 1,36 -4,-9 -2,-16 -26,37 2,-51 0,0 69,-14 59,54 -8,48 -28,43 -129,28 -40,-6 -16,3 -53,-16zm-234 66l31 60 26 -62c50,66 -14,36 82,15 15,-3 9,8 26,-10l7 64 13 0 12 -64c122,6 11,62 108,-2l-11 43c-10,49 -24,42 18,42l8 -87c70,2 69,-12 38,55l28 42 64 -11c-61,-32 -41,12 -47,-57l50 -31c62,-19 20,-9 47,-44 -44,0 -32,10 -32,-35 33,-143 -97,1 -5,-100 -132,10 -251,-27 -291,-162 -42,-143 37,-213 108,-290l-64 -74c-90,8 -32,17 -83,27l-186 8c8,117 3,249 2,367 0,295 -32,238 18,236l33 70z"/>
  <path class="fil4" d="M3197 910c-48,-145 26,24 5,-97 56,25 66,78 -5,97zm102 122c-100,52 -250,-124 -250,-224 1,-172 248,-193 247,-50l-85 -56c-111,27 -141,80 -129,196l217 134zm-354 -400c-11,63 -18,403 15,445 49,60 381,48 455,26 24,-83 23,-373 -8,-456 -64,-38 -387,-35 -462,-15z"/>
  <path class="fil5" d="M12601 807l-27 -70c-85,28 -2,14 -63,42l43 -164c47,-22 -6,-28 73,-2 -11,40 53,2 -36,58 -29,-12 4,5 -31,-32l-14 35 80 89c-11,81 2,33 -25,44zm-228 -152l106 3c-6,49 10,16 -39,28 23,84 -3,40 43,110 -96,-18 -27,-16 -119,18 -18,51 -24,79 -9,127l76 -11c2,2 4,4 5,10 1,5 4,9 5,10l52 39 40 -14c-7,-5 -27,-12 -30,-14l-28 -18c-3,-2 -9,-7 -13,-11 113,-45 8,-91 139,-125 -14,82 3,4 -51,83l81 25c21,-85 -20,-87 42,-139l-12 54c90,31 48,2 67,53l-47 -13 -18 110c-21,5 -129,31 -133,32l44 76c-55,58 -50,73 -127,72l51 -56c-23,-21 -34,-38 -57,-46l-113 -19 -9 87 -15 17c-69,-167 59,-7 -73,-155l-32 -42c-27,-43 -45,-80 -26,-127l24 89c72,-54 55,-82 132,-93l23 -44c-92,-53 -45,-34 -77,-77l-27 -34c79,-21 79,-17 119,-82l111 -8c-11,25 -29,45 -56,57 -32,14 -37,-14 -49,28zm-69 488c47,63 134,38 209,58 48,-35 85,-39 137,-83 43,-36 69,-84 107,-120l-8 -21 15 -121c-18,-221 -137,-305 -351,-313 -147,42 -238,91 -275,252 -30,131 30,316 166,348z"/>
  <path class="fil6" d="M8138 662c-29,61 -17,65 -20,141 28,-9 16,4 -11,-16l-4 74c86,57 22,29 17,35 -32,12 -7,-56 -35,47 35,13 25,-5 25,26 -82,-37 -23,-11 -59,5 6,3 12,4 15,11l47 27c-52,27 -53,15 -44,73 -8,2 -21,0 -24,5 -35,50 -27,-36 -31,-41 -21,44 -28,-47 -17,68l164 -5c57,-21 -5,19 41,-24 -81,11 -33,14 -60,-14l4 -134 92 3 4 113c52,12 63,21 94,2 -51,-71 -48,-14 -54,-101 62,-30 31,-32 80,-2l-47 4c62,68 50,40 55,127 3,43 -4,17 56,40 50,-80 24,-48 32,-144l6 -48 118 6c-15,45 15,10 -48,32l2 120 -37 -31c-22,33 -57,-43 -7,60l28 11c50,29 15,37 78,28 35,-5 113,-52 133,-76l-29 -82c-10,26 -11,37 -15,47 -2,5 -4,12 -6,17l-15 33c-21,-39 -45,-108 -58,-155 64,8 4,-18 63,24 -20,-80 22,-19 -70,-70 38,-59 4,-48 56,-43 -1,-87 13,-31 -34,-68 -30,47 15,36 -40,40l1 -153c47,3 21,-13 40,39 63,-105 21,-50 5,-77 -28,1 -53,0 -80,8 -63,21 -2,-16 -45,31 53,3 25,-21 55,13l-47 43 -19 101 -61 -142c29,-33 -11,-19 50,-13 -23,-26 -1,-36 -107,-42 -30,59 -14,88 1,130l12 58 -63 -71 -37 98c-4,-7 -8,-14 -9,-21l-5 -107 -7 -35 39 -9c-80,-78 75,-3 -36,-22 -72,-11 6,-23 -33,30 -6,26 1,4 -29,13l-36 13c55,38 37,19 52,48 -44,12 -13,3 -38,29l-48 -127z"/>
  <path class="fil7" d="M16160 866l0 0zm-206 -369c-71,77 -150,147 -108,290 40,135 159,172 291,162 55,-40 88,-26 132,-114 33,-65 42,-136 19,-207 -51,-159 -200,-160 -334,-131z"/>
  <path class="fil8" d="M9484 776c44,30 34,17 30,79l-76 0 46 -79zm-93 -58c68,-13 71,2 93,58l-85 99 -57 -10 3 10 33 37c64,-1 52,-26 139,-14 -61,54 -88,36 -167,40l8 37 94 -4c-68,59 -60,23 -156,21 -97,6 -71,-28 -83,48 86,-42 1022,-10 1217,-24 -64,-37 -56,-22 -138,-24l-71 7 -4 -292c-74,-40 -69,-3 -86,9l-15 30c-95,29 -213,35 -217,149 48,85 129,77 218,75 40,-67 -5,-65 50,-100 30,52 24,53 12,112 -307,109 -535,-196 -54,-269 -70,-35 -384,-35 -448,2 68,4 73,-8 119,59l-62 59 79 77c-48,84 -154,91 -246,87l-3 -290c-42,-21 -119,-22 -165,4l-8 7z"/>
  <path class="fil9" d="M9322 717l77 -6c46,-26 123,-25 165,-4l113 8c64,-37 378,-37 448,-2l6 3c17,-12 12,-49 86,-9l211 -5c-12,-71 23,-41 -16,-141l-1189 9 -5 112 104 35z"/>
  <path class="fil10" d="M9213 1040l11 33 41 20 -42 5 17 47 1176 -5c14,-58 37,-75 -30,-78l44 -46c-195,14 -1131,-18 -1217,24z"/>
  <path class="fil11" d="M14944 572l2 74c-4,-2 -24,-11 -27,-12l-55 4 4 -56c83,-7 -8,26 76,-10zm-359 -6c117,14 70,-15 81,60 44,-60 72,-47 149,-34l7 43c-61,28 -95,7 -177,10 -33,2 -32,5 -62,-5l2 -74zm566 441l-161 -14 -9 -52 -65 29c47,-49 37,-23 31,-77 -68,-47 -137,-33 -203,24l47 39c-62,5 -33,-6 -89,-56l-21 88c-35,-161 54,-48 41,-158 -12,-95 -79,-61 -134,-53l46 -87c69,-29 378,14 468,-7 95,-22 -50,54 49,-27 -74,-2 -95,8 -162,-16 16,-92 23,-102 65,-7l33 -61 61 57 0 -90 -590 6 1 493 585 4 7 -35z"/>
  <path class="fil6" d="M17424 1017c-64,76 8,37 -74,75 -158,74 -450,-87 -334,-356 36,-81 87,-37 11,-98l-18 40 -32 -14c-142,12 -118,247 -66,338l13 -128c56,50 45,79 71,135 32,70 65,56 116,103 50,47 14,176 225,98l-101 -22c85,-80 125,-24 210,-109 61,-62 81,-170 133,-187 22,61 -9,108 -33,169 117,-38 86,-287 43,-380 -82,-26 -72,46 -135,-62l-24 46c48,33 81,127 84,188 2,34 -17,116 -89,164z"/>
  <path class="fil0" d="M17167 687l73 -1 26 4 66 -4 26 4 69 -5c19,76 22,254 -3,332l-184 3 -162 -9c-29,-65 -25,-252 1,-333l88 9zm-98 -117c18,18 57,-1 -15,50l-17 -55 -51 16 21 39 20 18c76,61 25,17 -11,98 -116,269 176,430 334,356 82,-38 10,1 74,-75 72,-48 91,-130 89,-164 -3,-61 -36,-155 -84,-188l24 -46 61 -39 -64 19 -25 29 -26 -9c-100,-69 -83,-73 -83,-127l-83 85c-44,-56 -16,-12 -44,-88 7,66 46,98 -29,100 -54,1 -50,-32 -72,-70l-19 51z"/>
  <path class="fil12" d="M500 620c16,63 40,111 -22,122l-30 17c35,126 3,79 42,175l-58 5 -76 41 -93 -29 36 -24c-74,-6 -7,31 -63,-7l-15 -125c64,-81 13,-30 6,-50 -37,-35 -27,-61 -10,-119 -62,58 -5,69 -38,153 -26,64 -154,90 -34,202 87,81 4,-4 41,126 39,-8 11,4 43,-15 2,-1 23,-19 28,-23l-7 40 201 -5c17,-64 -11,20 -2,-34l74 6c-11,-123 95,-74 103,-162 -18,-118 -52,-34 -87,-122 -33,-87 28,-105 -39,-172z"/>
  <path class="fil13" d="M3933 771c-52,-37 -5,-226 -184,-133 -12,53 13,56 14,130 2,76 -21,89 -24,150 51,33 45,34 102,8 -7,-74 -35,-89 -12,-161 73,38 -10,111 92,172 94,-62 27,-131 87,-190 39,105 -11,108 -15,182 63,23 59,19 123,-2 10,-61 -25,-81 -22,-158 2,-61 31,-85 19,-135 -182,-69 -127,62 -180,137z"/>
  <path class="fil14" d="M17514 580l-61 39c63,108 53,36 135,62 43,93 74,342 -43,380 24,-61 55,-108 33,-169 -52,17 -72,125 -133,187 -85,85 -125,29 -210,109l101 22c-211,78 -175,-51 -225,-98 -51,-47 -84,-33 -116,-103 -26,-56 -15,-85 -71,-135l-13 128c-52,-91 -76,-326 66,-338 -11,-36 -10,-30 30,-44l-21 -39c-202,82 -188,649 261,651 468,1 452,-573 267,-652z"/>
  <path class="fil15" d="M5322 985l4 -45c-92,12 -84,7 -159,55l-1 -201c-32,-53 13,-14 -29,-88l-8 198c-109,-96 -192,-35 -193,-206l-80 -40c-55,490 137,242 287,453 23,-102 100,-67 179,-126z"/>
  <path class="fil8" d="M12513 1201l10 2c-110,-9 -55,-17 -96,51 48,79 10,51 105,60l337 -14c65,-165 -1,-140 -37,-178l49 -49c-26,-17 -24,9 -28,13l-40 -56c-5,48 -3,72 -42,95 -32,19 -6,15 -47,-19l35 -69 -2 -39c-38,36 -64,84 -107,120 -52,44 -89,48 -137,83z"/>
  <path class="fil15" d="M11145 880l-96 5c-30,93 -24,144 25,212l49 -58c47,-23 19,-12 51,-72 38,83 90,69 142,7l37 55 52 -39 1 -16 35 44 39 -25c-41,-19 -12,7 -35,-28 59,-14 51,0 77,-43 -32,-45 -24,-25 -106,-41 43,-55 32,-60 12,-129 -126,-14 -35,-5 -77,17l39 10c-34,52 -29,41 -3,97 -72,-29 -144,-2 -242,4z"/>
  <path class="fil16" d="M12749 579c-40,26 -72,44 -59,-11 3,-16 -32,-30 31,-18 44,9 14,8 28,29zm-289 -116c83,-22 72,-22 82,44 -41,19 -22,9 -85,10 -43,-21 -16,-9 -44,26 214,8 333,92 351,313 15,-9 77,2 9,-132 -37,-73 -45,-22 -28,-104 78,16 75,95 103,118l15 -325c-198,9 -125,-8 -181,88 -40,-35 -75,-48 -102,-92 -56,80 11,7 -69,31l-51 23z"/>
  <path class="fil17" d="M13587 954c130,-36 129,-154 185,-200l144 246 -372 2 43 -48zm88 -133c-30,89 -67,57 -88,133 -59,6 -119,28 -153,70 112,30 407,29 526,6 -13,-74 -171,-338 -235,-379 -53,-36 -77,-14 -123,21 50,60 62,40 101,41 -30,40 -30,57 -28,108z"/>
  <path class="fil8" d="M14990 993c15,-35 34,-57 34,-57 23,-56 9,9 3,-39 -3,-23 -9,12 -7,-45 1,-31 9,-22 9,-43 27,-20 12,-5 48,-13l-172 -45c-105,24 -145,-61 -271,-61l-46 87c55,-8 122,-42 134,53 13,110 -76,-3 -41,158l21 -88c56,50 27,61 89,56l-47 -39c66,-57 135,-71 203,-24 6,54 16,28 -31,77l65 -29 9 52z"/>
  <path class="fil18" d="M13347 1030c125,-4 261,-109 328,-209 -2,-51 -2,-68 28,-108 -39,-1 -51,19 -101,-41 46,-35 70,-57 123,-21l-51 -126c-41,40 -48,58 -79,115 -53,94 -167,331 -248,390z"/>
  <path class="fil19" d="M14905 751l172 45c-36,8 -21,-7 -48,13 0,21 -8,12 -9,43 -2,57 4,22 7,45 6,48 20,-17 -3,39 0,0 -19,22 -34,57l161 14 2 -328 -343 15 186 28 -91 29z"/>
  <path class="fil20" d="M4228 702c87,-53 73,-8 138,32 42,-58 36,-35 13,-107 -161,-29 -281,4 -254,197 21,147 286,172 256,31 -1,0 -247,104 -153,-153z"/>
  <path class="fil21" d="M4936 698c1,171 84,110 193,206l8 -198c-38,-73 -125,-90 -200,-119l-1 111z"/>
  <path class="fil22" d="M13347 1030c81,-59 195,-296 248,-390 31,-57 38,-75 79,-115l0 -30 -11 -25c-89,15 -33,-29 -119,126l-238 424 41 10z"/>
  <path class="fil23" d="M16139 647l4 123c10,47 -4,9 24,43 53,-83 35,-107 15,-195 108,104 -3,201 -22,248 -4,-3 -10,-11 -12,-8l-31 -27c-1,-2 -5,-7 -8,-11l-78 55c87,-94 -70,74 -43,-237l45 -2c-37,-11 -26,12 -24,-40 51,-8 34,4 55,-38l75 89zm21 219l0 0z"/>
  <path class="fil24" d="M5166 794l1 201c75,-48 67,-43 159,-55 46,-112 42,-125 35,-248 -88,44 -120,29 -195,102z"/>
  <path class="fil16" d="M13587 954l-43 48 372 -2 -144 -246c-56,46 -55,164 -185,200z"/>
  <path class="fil25" d="M17364 822l17 72 40 79c-11,57 11,-1 -18,37 -58,-21 -46,58 -39,-188zm-124 198l184 -3c25,-78 22,-256 3,-332 -7,73 5,77 -28,122 -58,-27 -32,-22 -41,-117l-26 -4 -14 254c-40,-58 -7,-18 -45,-40l-7 -210 -26 -4 0 334z"/>
  <path class="fil26" d="M227 745c7,20 58,-31 -6,50 71,-2 43,-6 100,-21 37,125 29,43 82,123l37 3 -8 39 58 -5c-39,-96 -7,-49 -42,-175l30 -17 -87 -15c32,-106 32,-71 -44,-106 -49,43 -21,76 -55,121 -50,-136 2,-60 -53,-99 -21,62 -10,31 -12,102z"/>
  <path class="fil4" d="M9622 965l-2 -98c75,-14 75,-14 132,31 -31,60 -56,68 -130,67zm0 -224c65,-9 75,-14 113,35 -28,53 -47,47 -111,55l-2 -90zm55 -26l-113 -8 3 290c92,4 198,-3 246,-87l-79 -77 62 -59c-46,-67 -51,-55 -119,-59z"/>
  <path class="fil27" d="M16986 581l51 -16 32 5 19 -51c22,38 18,71 72,70 75,-2 36,-34 29,-100 28,76 0,32 44,88l83 -85c0,54 -17,58 83,127l14 -49c38,5 19,-3 37,29l64 -19c-18,-33 -22,-51 -108,-83 -94,-35 -207,-31 -301,0 -61,20 -96,36 -119,84z"/>
  <path class="fil28" d="M3711 623l-140 3c6,79 43,21 23,249 -87,15 -104,-52 -95,53 241,74 179,-135 189,-213 9,-72 20,-15 23,-92z"/>
  <path class="fil29" d="M7388 872l2 -224 -202 5c6,123 69,210 200,219z"/>
  <path class="fil30" d="M12283 940l30 43 15 56 113 19c23,8 34,25 57,46l-51 56c77,1 72,-14 127,-72l-44 -76 -75 16 38 -39 -52 -39c-1,-1 -4,-5 -5,-10 -1,-6 -3,-8 -5,-10l-76 11c-15,-48 -9,-76 9,-127 -51,63 -29,39 -79,68l-2 58z"/>
  <path class="fil31" d="M10997 544c90,-13 330,-218 572,41 231,248 39,481 24,573 166,-138 132,-457 -10,-605 -134,-138 -457,-180 -586,-9z"/>
  <path class="fil32" d="M12366 685l59 31 -47 66 -49 33c-77,11 -60,39 -132,93l-24 -89c-19,47 -1,84 26,127l32 42c132,148 4,-12 73,155l15 -17 9 -87 -15 -56 -30 -43 2 -58c50,-29 28,-5 79,-68 92,-34 23,-36 119,-18 -46,-70 -20,-26 -43,-110 49,-12 33,21 39,-28l-106 -3 -9 36 2 -6z"/>
  <path class="fil33" d="M7209 1035c-61,-5 -14,-39 -108,-19 -82,17 -63,41 -63,100l352 -5c2,-160 -140,-72 -181,-76z"/>
  <path class="fil34" d="M16139 647l-42 -14 -20 45 38 41 -47 54c-34,-49 -13,-23 -46,-54l41 -65 -75 -16c-27,311 130,143 43,237l78 -55c3,4 7,9 8,11l31 27c2,-3 8,5 12,8 19,-47 130,-144 22,-248 20,88 38,112 -15,195 -28,-34 -14,4 -24,-43l-4 -123z"/>
  <path class="fil11" d="M10131 716l-6 -3c-481,73 -253,378 54,269 12,-59 18,-60 -12,-112 -55,35 -10,33 -50,100 -89,2 -170,10 -218,-75 4,-114 122,-120 217,-149l15 -30z"/>
  <path class="fil35" d="M12764 856l-15 121 79 34 32 -50c5,-110 2,-113 -12,-223 -28,-23 -25,-102 -103,-118 -17,82 -9,31 28,104 68,134 6,123 -9,132z"/>
  <path class="fil19" d="M4033 1117c-1,-6 -4,-18 -4,-16l-18 -117c36,21 14,8 35,28l33 34c-42,37 -23,16 -46,71zm-49 -105l-1 71 29 46 259 -13 -13 -28c-21,33 2,24 -36,12 13,-70 -5,-26 -10,-109l42 18 29 21c-6,-65 -19,-49 47,-39 -48,-23 34,-12 -55,-21 -23,-2 -33,0 -53,8 -35,14 -25,18 -44,48 45,68 26,8 15,75 -35,-24 -8,18 -34,-53l-34 66c13,-131 -28,-116 47,-122 -56,-33 -87,-25 -163,-23l-25 43z"/>
  <path class="fil24" d="M10292 992l-11 -111c44,-13 35,-2 61,-8 0,0 48,-3 71,-34l-136 -13 -1 -77c76,-28 137,14 152,-47l-211 5 4 292 71 -7z"/>
  <path class="fil36" d="M11319 685c-34,78 -18,31 -76,39l1 -103 67 0c4,11 22,32 8,64zm-84 79c84,47 5,25 75,102l20 -97c3,-3 7,-7 9,-9 134,-154 -128,-327 -158,-57 49,57 23,6 54,61z"/>
  <path class="fil37" d="M12601 807c-131,34 -26,80 -139,125 4,4 10,9 13,11l28 18c3,2 23,9 30,14l-40 14 -38 39 75 -16c4,-1 112,-27 133,-32l18 -110 47 13c-19,-51 23,-22 -67,-53l12 -54c-62,52 -21,54 -42,139l-81 -25c54,-79 37,-1 51,-83z"/>
  <path class="fil4" d="M7140 645l-104 14 8 277 113 -9c9,-71 18,-175 -9,-236 -96,54 -18,107 -58,208 -27,-50 -17,-126 -18,-193l68 -61z"/>
  <path class="fil38" d="M12187 1090c-143,-187 -14,-143 -133,-152 -5,16 37,258 240,311 44,-130 9,-8 -107,-159z"/>
  <path class="fil39" d="M17078 1011l10 -209c71,42 46,115 51,204l-61 5zm0 0l162 9 -71 -8 -2 -325 -88 -9c-26,81 -30,268 -1,333z"/>
  <path class="fil32" d="M3299 1032l-217 -134c-12,-116 18,-169 129,-196l85 56c1,-143 -246,-122 -247,50 0,100 150,276 250,224z"/>
  <polygon class="fil40" points="17240,1020 17240,686 17167,687 17169,1012 "/>
  <path class="fil41" d="M8202 1088l1 -40c35,51 38,42 83,42 41,0 39,1 84,-4 -5,-87 7,-59 -55,-127l47 -4c-49,-30 -18,-28 -80,2 6,87 3,30 54,101 -31,19 -42,10 -94,-2l-4 -113 -92 -3 -4 134c27,28 -21,25 60,14z"/>
  <path class="fil42" d="M7972 830l-18 -26 -35 36 33 70c98,27 51,-15 117,37l16 -4c28,-103 3,-35 35,-47 -42,-89 -31,-82 -62,-175l-45 -8 0 104 -41 13z"/>
  <path class="fil43" d="M13569 1172c76,-12 160,-45 227,20 65,-65 150,-31 210,-40l7 -64c-35,7 -182,37 -203,32 -71,-16 -109,-9 -181,-45 -38,64 44,-30 -60,97z"/>
  <path class="fil44" d="M14799 1273c11,-46 -1,-18 42,-13 41,4 70,4 111,4 68,0 121,8 175,-22 -58,-31 -175,-18 -252,-27 -313,5 -233,-21 -267,47l191 11z"/>
  <path class="fil43" d="M14634 690c126,0 166,85 271,61l91 -29 -186 -28 343 -15 -5 -140 0 90 -61 -57 -33 61c-42,-95 -49,-85 -65,7 67,24 88,14 162,16 -99,81 46,5 -49,27 -90,21 -399,-22 -468,7z"/>
  <path class="fil45" d="M5674 861c32,-77 11,-34 16,-117 48,63 59,95 140,106l-4 -185c-52,68 -23,18 -23,115 -55,-51 -59,-92 -137,-113 -8,79 -20,130 8,194z"/>
  <path class="fil11" d="M452 653c45,58 45,3 0,65 -22,-42 -41,-12 0,-65zm-225 92c2,-71 -9,-40 12,-102 55,39 3,-37 53,99 34,-45 6,-78 55,-121 76,35 76,0 44,106l87 15c62,-11 38,-59 22,-122l-283 6c-17,58 -27,84 10,119z"/>
  <path class="fil46" d="M221 795l15 125c56,38 -11,1 63,7 30,-61 19,-43 67,-39 -3,115 -12,-34 -45,83 68,-4 72,-9 82,-74 -53,-80 -45,2 -82,-123 -57,15 -29,19 -100,21z"/>
  <path class="fil47" d="M11123 1039l-4 54 56 -24c3,1 16,18 18,20 50,42 56,-19 105,-72 3,6 7,33 9,38 17,38 -7,16 24,38 40,29 60,-10 66,-16l-48 -21c45,-41 4,-51 61,-27 19,-77 10,-28 -5,-39l-52 39 -37 -55c-52,62 -104,76 -142,-7 -32,60 -4,49 -51,72z"/>
  <path class="fil48" d="M9391 718c-60,23 -68,24 -69,104 35,33 15,10 20,43l57 10 85 -99c-22,-56 -25,-71 -93,-58z"/>
  <path class="fil49" d="M12329 815l49 -33c-15,-73 14,-16 -45,-71l33 -26 -2 6 9 -36c12,-42 17,-14 49,-28 27,-12 45,-32 56,-57l-111 8c-40,65 -40,61 -119,82l27 34c32,43 -15,24 77,77l-23 44z"/>
  <path class="fil50" d="M13379 1161c176,-68 184,73 173,-73 -257,25 -160,-53 -217,33l-39 -50 -38 69c80,49 61,-15 121,21z"/>
  <path class="fil38" d="M12055 919c76,-63 37,-85 95,-229 23,-58 25,-47 -33,-67 -20,37 -51,87 -65,138l3 158z"/>
  <path class="fil51" d="M7393 974c-75,-39 -116,-7 -184,-9 -71,-1 -102,-26 -173,10 22,94 33,28 79,25 89,-6 21,19 108,16 75,-3 1,-21 106,-13 89,7 45,20 64,-29z"/>
  <path class="fil33" d="M6398 674c49,73 32,31 2,84 -31,-45 -45,-9 -2,-84zm96 151l-50 -40c0,-96 29,-11 5,-108l-93 -12c-32,21 -16,142 -16,186 37,-17 12,1 36,-27 4,-4 18,-36 21,-42 23,41 72,103 97,43z"/>
  <path class="fil52" d="M948 822c28,-36 2,-45 9,-119l137 118c11,-66 24,-158 -6,-199 -25,38 1,53 -14,130 -27,-21 -88,-99 -137,-121 -4,61 -17,147 11,191z"/>
  <path class="fil7" d="M1735 725c-30,-56 -29,-35 -1,-89 48,51 39,37 1,89zm43 -98l-5 -3 -93 -3 0 199c78,-25 6,16 51,-71 47,69 10,57 81,76l-44 -89c39,-43 25,-72 10,-109z"/>
  <path class="fil46" d="M1859 626l-16 90 102 62c-64,45 -4,22 -87,15 29,64 77,34 125,1 -10,-160 -47,-25 -96,-136 76,-46 13,15 87,-17 -52,-41 -47,-29 -115,-15z"/>
  <path class="fil53" d="M11145 880c98,-6 170,-33 242,-4 -26,-56 -31,-45 3,-97l-39 -10 -5 23 -16 -23 -20 97c-70,-77 9,-55 -75,-102 -21,77 3,70 -51,103 -12,-32 -13,-65 12,-104l-52 0 1 117z"/>
  <path class="fil54" d="M7679 988l-55 -33 -24 143 55 -43c2,-4 -1,-28 1,-33 33,59 36,51 95,74l9 -167c-70,27 -53,-37 -34,92 -26,-75 -12,-26 -47,-33z"/>
  <path class="fil39" d="M11405 990c15,11 24,-38 5,39 -57,-24 -16,-14 -61,27l48 21c113,46 33,72 138,58l-10 -132c-49,20 -12,3 -41,66l-4 -76 -39 25 -35 -44 -1 16z"/>
  <path class="fil55" d="M13614 1296c22,10 121,6 143,5 69,-15 10,37 68,-25 -18,-83 18,13 -9,-30 -1,-2 -4,-7 -6,-9 -1,-1 -5,-3 -6,-3 -65,-39 -80,28 -84,38 -32,-68 -53,-55 -114,-52l8 76z"/>
  <path class="fil23" d="M6262 921l-7 33c111,32 35,-22 58,105 70,-21 62,-31 60,-94 62,16 50,9 68,-16 34,-48 4,-5 6,-38 -88,4 3,-52 -90,43 -22,-79 0,-17 -29,-62l-66 29z"/>
  <path class="fil56" d="M14583 640c30,10 29,7 62,5 82,-3 116,18 177,-10l-7 -43c-77,-13 -105,-26 -149,34 -11,-75 36,-46 -81,-60l-2 74z"/>
  <path class="fil57" d="M2408 1039c-28,-48 -31,5 -4,-62 16,41 18,27 4,62zm-79 71c104,-46 -21,-14 80,-59 85,46 -3,49 86,50 -6,-33 -17,-55 -28,-89 -46,-141 -24,-77 -55,-101 -32,67 -62,136 -83,199z"/>
  <path class="fil46" d="M11145 880l-1 -117c-65,31 9,-39 -113,6l5 110c124,35 36,-22 109,1z"/>
  <path class="fil41" d="M7392 919c-42,-23 -82,-23 -121,-49 -40,-27 -31,-41 -83,-67l3 131c59,9 158,12 201,-15z"/>
  <path class="fil58" d="M1329 921c-8,117 40,71 85,144 -52,40 -5,23 -80,11 39,72 107,33 125,-44 -68,-74 -75,-12 -95,-93 75,-48 0,21 88,-16 -47,-33 -66,-31 -123,-2z"/>
  <path class="fil34" d="M1003 953c-1,98 -17,104 23,164 37,-61 23,-1 22,-165 39,-31 -8,0 35,-19 104,-44 -41,30 35,-13 -45,-26 -119,-19 -176,-12 11,39 -29,-4 50,38 2,1 8,4 11,7z"/>
  <path class="fil29" d="M17332 686l-66 4 7 210c38,22 5,-18 45,40l14 -254z"/>
  <path class="fil5" d="M1435 612l-32 1 -36 144c-52,-70 -26,-110 -94,-131 1,60 39,138 74,193 42,-45 80,-145 88,-207z"/>
  <path class="fil59" d="M5595 831l2 -168c-68,77 45,122 -72,173 -89,-81 -3,-95 -57,-176 -48,53 -48,267 127,171z"/>
  <path class="fil11" d="M1512 622l-8 1 -9 196c64,6 79,16 126,-13l-77 0c-4,-89 -13,-72 63,-78 -64,-41 -18,2 -66,-33l4 -52c70,-3 49,34 69,-15l-102 -6z"/>
  <path class="fil19" d="M13514 1310l91 10 -30 -89c-54,-23 -86,-17 -129,-1l4 64 64 16z"/>
  <path class="fil60" d="M7735 672c-45,8 -39,-46 -43,152 144,39 28,6 91,90l21 -106c-36,-19 19,-21 -65,1 12,-86 -26,-19 47,-59 -31,-18 33,-24 -52,-15l1 -63z"/>
  <path class="fil40" d="M1193 976c60,86 16,36 4,62 -25,-38 -36,7 -4,-62zm-73 130l64 -41c2,-2 6,-7 10,-10l78 44c3,1 11,2 17,2l-73 -195 -50 94c-15,39 -31,72 -46,106z"/>
  <path class="fil47" d="M15908 1065c37,19 13,10 53,16 101,15 121,20 129,-28 10,-68 -59,-54 -59,-54 -28,88 -4,35 -2,51 5,45 34,-19 4,9 -36,-4 -7,-6 -48,-34l-30 -14c-3,-8 -12,-4 -17,-4l-30 58z"/>
  <path class="fil61" d="M1849 976l-6 60c-18,-21 -22,-46 6,-60zm-85 123c89,-4 -25,-8 86,-51 73,55 -15,23 79,63l-74 -204 -91 192z"/>
  <path class="fil52" d="M2192 656c11,101 -14,118 28,170 43,-67 9,-35 23,-171 61,-33 38,40 62,-27l-172 -8c29,76 3,-3 59,36z"/>
  <path class="fil1" d="M9622 965c74,1 99,-7 130,-67 -57,-45 -57,-45 -132,-31l2 98z"/>
  <path class="fil62" d="M3705 1092c25,4 23,-3 10,19 52,7 27,5 64,-4 53,-14 -7,-16 44,-2 48,14 84,26 131,0 -33,1 -25,9 -25,-23l-4 3c-15,13 12,33 -41,5l-31 -5 -20 16c-20,-70 -4,-47 -58,-95l49 -3 -35 -28c-40,48 -18,43 -47,87 -37,57 13,-18 -37,30z"/>
  <path class="fil63" d="M9322 822c1,-80 9,-81 69,-104l8 -7 -77 6c-71,26 -88,48 -96,126 51,9 43,24 96,-21z"/>
  <path class="fil48" d="M6086 692c69,-36 30,37 52,-31l-155 5c8,38 -6,11 54,17 1,78 -19,130 29,170 29,-37 16,-98 20,-161z"/>
  <path class="fil64" d="M7919 840l35 -36c-68,-20 15,26 -84,-8 -40,-100 32,-55 -11,-127l-54 63c13,138 65,41 78,178 28,-80 -28,-28 36,-70z"/>
  <path class="fil64" d="M7564 932c0,4 -4,8 -5,10 -22,127 47,111 -60,123l-12 -106c-34,-129 67,82 -18,-31 -35,63 -18,16 -19,128 73,62 122,57 132,-45 12,-126 4,-45 -18,-79z"/>
  <path class="fil65" d="M17078 1011l61 -5c-5,-89 20,-162 -51,-204l-10 209z"/>
  <path class="fil60" d="M7479 711c13,-20 35,12 31,-48l-72 30c12,59 10,65 61,98 -69,39 19,-21 -63,8 38,72 90,33 110,-41l-67 -47z"/>
  <path class="fil15" d="M5170 733l88 -30 5 -105c-59,13 -61,7 -105,54l12 81z"/>
  <path class="fil47" d="M15846 1198l-7 -64c-17,18 -11,7 -26,10 -96,21 -32,51 -82,-15l-26 62 -31 -60 -8 79c54,12 79,-6 114,-11 60,-7 16,52 66,-1z"/>
  <path class="fil66" d="M15072 1061c-115,7 -153,-15 -206,37 37,40 54,30 60,-9l46 53 39 -56c27,59 -6,30 42,44l19 -69z"/>
  <path class="fil67" d="M3884 1090c53,28 26,8 41,-5l-2 -75c62,34 52,24 6,72 0,32 -8,24 25,23 29,-16 18,6 29,-22l1 -71c-41,-42 -50,-37 -104,-19l4 97z"/>
  <path class="fil58" d="M7846 936l64 159c14,-15 22,-25 30,-38 0,0 15,-33 17,-37 21,-43 22,-40 36,-85 -69,28 -31,-7 -56,96 -58,-81 11,-64 -91,-95z"/>
  <path class="fil34" d="M8014 1049c4,5 -4,91 31,41 3,-5 16,-3 24,-5 -9,-58 -8,-46 44,-73l-47 -27c-3,-7 -9,-8 -15,-11 36,-16 -23,-42 59,-5 0,-31 10,-13 -25,-26l-16 4 -51 6 -4 96z"/>
  <path class="fil68" d="M2426 822c22,-128 -6,-90 67,-194 -48,11 -32,16 -66,73 -69,-57 -12,-65 -85,-73 13,59 21,36 43,88 15,38 5,32 12,54 1,2 -10,13 29,52z"/>
  <path class="fil69" d="M8702 1002l27 -59c-53,5 -25,-19 -54,50l-4 -25c-59,-42 1,-16 -63,-24 13,47 37,116 58,155l15 -33c2,-5 4,-12 6,-17 4,-10 5,-21 15,-47z"/>
  <path class="fil62" d="M9350 938c79,-4 106,14 167,-40 -87,-12 -75,13 -139,14l-33 -37c-69,7 -63,2 -118,31 33,13 38,17 112,-1l11 33z"/>
  <path class="fil8" d="M9624 831c64,-8 83,-2 111,-55 -38,-49 -48,-44 -113,-35l2 90z"/>
  <path class="fil70" d="M4330 991c-66,-10 -53,-26 -47,39 49,47 21,117 41,74 1,-3 5,12 8,18 3,-6 6,-13 8,-18l25 -62c21,-57 15,3 7,-64l-42 13z"/>
  <path class="fil71" d="M2109 1027l-1 25 38 22 -24 15 37 17c9,-170 29,-153 -14,-209 -52,68 14,64 -36,130z"/>
  <path class="fil72" d="M687 1030c8,71 -4,60 60,71 -32,-68 -35,-31 1,-95 53,39 34,31 17,96 54,-17 36,-1 63,-53 -35,-54 -102,-81 -141,-19z"/>
  <path class="fil68" d="M11438 863c62,34 -52,-3 20,-2l62 22 7 -99c-45,-9 13,28 -90,-22l1 101z"/>
  <path class="fil73" d="M11243 724c58,-8 42,39 76,-39 14,-32 -4,-53 -8,-64l-67 0 -1 103z"/>
  <path class="fil74" d="M8458 982l41 -27 0 106 37 31 -2 -120c63,-22 33,13 48,-32l-118 -6 -6 48z"/>
  <path class="fil75" d="M3715 1111c13,-22 15,-15 -10,-19l-45 -43c45,-87 6,-4 74,-40 -96,-105 -181,121 -19,102z"/>
  <path class="fil76" d="M803 818c-44,-25 -27,-10 -69,-49 -2,-72 14,-100 -23,-145 -37,69 -34,206 92,194z"/>
  <path class="fil77" d="M15988 638l75 16 14 24 20 -45 42 14 -75 -89c-21,42 -4,30 -55,38 -2,52 -13,29 24,40l-45 2z"/>
  <path class="fil61" d="M17427 685l-69 5c9,95 -17,90 41,117 33,-45 21,-49 28,-122z"/>
  <path class="fil78" d="M3622 1105c-17,-56 -18,-101 -73,-122 -34,44 -20,39 -21,96l34 -48c14,138 38,71 60,74z"/>
  <path class="fil79" d="M299 927l-36 24 93 29 76 -41 8 -39 -37 -3c-10,65 -14,70 -82,74 33,-117 42,32 45,-83 -48,-4 -37,-22 -67,39z"/>
  <path class="fil77" d="M2020 969l-15 -54c-18,28 -10,-1 -20,41l-6 113c8,47 -1,14 20,57 37,-66 19,-78 21,-157z"/>
  <path class="fil17" d="M1545 1001l5 -26 -35 -7c-71,144 -9,148 -3,162l17 -42c25,-112 -23,-19 16,-87z"/>
  <path class="fil47" d="M16353 1213l33 -76 55 76c19,-67 59,-46 -21,-80 -17,-6 -85,-6 -109,-4l42 84z"/>
  <path class="fil11" d="M5918 663c-37,49 -21,146 1,197 24,-50 40,-146 -1,-197z"/>
  <path class="fil80" d="M12601 807c27,-11 14,37 25,-44l-80 -89 14 -35 -6 -24 -43 164c61,-28 -22,-14 63,-42l27 70z"/>
  <path class="fil78" d="M2257 1104c5,-13 43,-171 -14,-194 -4,9 -35,155 14,194z"/>
  <path class="fil69" d="M1204 623l-17 1c-12,60 -19,152 8,199 31,-46 25,-140 9,-200z"/>
  <path class="fil81" d="M16124 1216l-13 -28c69,48 35,22 58,12l-10 -74 -32 2 -50 31c6,69 -14,25 47,57z"/>
  <path class="fil61" d="M17364 822c-7,246 -19,167 39,188 29,-38 7,20 18,-37l-40 -79 -17 -72z"/>
  <path class="fil82" d="M9296 992c96,2 88,38 156,-21l-94 4 -8 -37 -67 8c2,41 -19,1 13,46z"/>
  <path class="fil83" d="M16247 1214c23,-91 -32,-86 -60,-91 -21,133 30,94 60,91z"/>
  <path class="fil67" d="M7972 830l41 -13 0 -104c-14,-84 -10,-30 -38,-37l-3 154z"/>
  <path class="fil52" d="M8058 721c31,93 20,86 62,175 5,-6 69,22 -17,-35l4 -74 -1 -114c-47,18 -40,39 -48,48z"/>
  <path class="fil84" d="M12813 1030l-54 7 -35 69c41,34 15,38 47,19 39,-23 37,-47 42,-95z"/>
  <path class="fil85" d="M8512 731l-30 -7 0 -47c-61,-6 -21,-20 -50,13l61 142 19 -101z"/>
  <path class="fil86" d="M15859 1198l19 16 16 -52 51 60 23 -47 11 -43c-97,64 14,8 -108,2l-12 64z"/>
  <path class="fil87" d="M2055 821c31,-42 32,-155 0,-197 -22,45 -21,152 0,197z"/>
  <path class="fil52" d="M8623 787l1 -74c-19,-52 7,-36 -40,-39l-1 153c55,-4 10,7 40,-40z"/>
  <path class="fil28" d="M1697 1105c11,-63 12,-137 -17,-188 -29,56 -19,15 -15,83 5,76 -3,64 32,105z"/>
  <path class="fil85" d="M4178 1026l-6 -34c-75,6 -34,-9 -47,122l34 -66c26,71 -1,29 34,53 11,-67 30,-7 -15,-75z"/>
  <path class="fil10" d="M5600 1072c68,-23 62,-16 72,-80l-91 -1 19 81z"/>
  <path class="fil88" d="M7806 935c-38,64 -28,100 -1,166 34,-67 31,-118 1,-166z"/>
  <path class="fil84" d="M16077 678l-14 -24 -41 65c33,31 12,5 46,54l47 -54 -38 -41z"/>
  <path class="fil89" d="M15920 1340c82,-20 69,-4 50,-91 -53,16 -77,6 -50,91z"/>
  <path class="fil90" d="M6298 844l-81 -171c-28,41 -7,57 11,96 30,65 14,52 70,75z"/>
  <path class="fil91" d="M15986 1217l74 10 -28 -42c31,-67 32,-53 -38,-55l-8 87z"/>
  <path class="fil92" d="M8237 686l-99 -24 48 127c25,-26 -6,-17 38,-29 -15,-29 3,-10 -52,-48l36 -13c30,-9 23,13 29,-13z"/>
  <path class="fil30" d="M12460 463l-3 54c63,-1 44,9 85,-10 -10,-66 1,-66 -82,-44z"/>
  <path class="fil93" d="M16070 1259c-76,5 -54,-14 -79,59l80 21 -1 -80z"/>
  <path class="fil12" d="M6255 954l7 -33c-50,-24 -5,-36 -85,-2 6,29 -46,16 25,48 25,12 32,-4 53,-13z"/>
  <path class="fil30" d="M14868 582l-4 56 55 -4c3,1 23,10 27,12l-2 -74c-84,36 7,3 -76,10z"/>
  <path class="fil94" d="M8325 752l2 -24 -53 -6 5 107c1,7 5,14 9,21l37 -98z"/>
  <path class="fil95" d="M2020 969c34,54 34,61 88,83l1 -25 -104 -112 15 54z"/>
  <path class="fil96" d="M12162 563c4,51 13,40 45,55l35 -36c-76,-86 -79,-20 -80,-19z"/>
  <path class="fil97" d="M9484 776l-46 79 76 0c4,-62 14,-49 -30,-79z"/>
  <path class="fil45" d="M832 1111c9,-5 15,-18 16,-14 18,37 18,-20 20,-24 4,-4 15,-19 19,-24l-58 -62 3 124z"/>
  <path class="fil98" d="M12560 639c35,37 2,20 31,32 89,-56 25,-18 36,-58 -79,-26 -26,-20 -73,2l6 24z"/>
  <path class="fil76" d="M12378 782l47 -66 -59 -31 -33 26c59,55 30,-2 45,71z"/>
  <path class="fil99" d="M4079 1046l-33 -34c-21,-20 1,-7 -35,-28l18 117c0,-2 3,10 4,16 23,-55 4,-34 46,-71z"/>
  <path class="fil100" d="M3197 910c71,-19 61,-72 5,-97 21,121 -53,-48 -5,97z"/>
  <path class="fil19" d="M12376 511c114,-8 44,-1 58,-43l-58 -19c-20,45 -31,10 0,62z"/>
  <path class="fil70" d="M4258 1088l-4 -79 -42 -18c5,83 23,39 10,109 38,12 15,21 36,-12z"/>
  <path class="fil12" d="M5700 1058c84,-12 55,-11 66,-55l-71 -9 5 64z"/>
  <path class="fil101" d="M16202 1256c-28,39 -15,43 10,80 59,-60 46,-56 -10,-80z"/>
  <path class="fil70" d="M1550 975l-5 26c43,64 10,67 73,81 -8,-42 -34,-79 -68,-107z"/>
  <path class="fil102" d="M16142 1049c0,45 -12,35 32,35 18,-14 -7,-1 23,-9l-15 -79 -40 53z"/>
  <path class="fil103" d="M12283 542c56,-26 61,-9 12,-65 -60,31 -58,17 -12,65z"/>
  <path class="fil103" d="M15120 1131c22,-64 11,-37 -18,-70 -69,74 -8,58 18,70z"/>
  <path class="fil83" d="M12749 579c-14,-21 16,-20 -28,-29 -63,-12 -28,2 -31,18 -13,55 19,37 59,11z"/>
  <path class="fil1" d="M1735 725c38,-52 47,-38 -1,-89 -28,54 -29,33 1,89z"/>
  <path class="fil56" d="M14679 1110c17,-25 13,-9 -5,-43 -59,18 -53,-52 -33,64 38,-26 9,25 38,-21z"/>
  <polygon class="fil104" points="16176,1327 16121,1255 16093,1314 "/>
  <path class="fil105" d="M3853 1085l-29 -82 -49 3c54,48 38,25 58,95l20 -16z"/>
  <path class="fil8" d="M6400 758c30,-53 47,-11 -2,-84 -43,75 -29,39 2,84z"/>
  <path class="fil106" d="M7571 800c61,-33 47,-25 66,-92 -37,23 -4,-20 -44,39 -14,20 -13,33 -22,53z"/>
  <path class="fil83" d="M16977 664l32 14 18 -40 -20 -18c-40,14 -41,8 -30,44z"/>
  <path class="fil107" d="M5804 966c21,-38 46,-5 0,-64 -63,51 -13,44 0,64z"/>
  <polygon class="fil105" points="8376,765 8327,728 8325,752 8388,823 "/>
  <polygon class="fil20" points="8274,722 8327,728 8306,678 8267,687 "/>
  <path class="fil71" d="M17399 619l26 9 25 -29c-18,-32 1,-24 -37,-29l-14 49z"/>
  <path class="fil108" d="M6047 1055c15,-28 41,3 -1,-63 -63,52 -20,33 1,63z"/>
  <path class="fil109" d="M7803 842c21,30 -27,-8 14,42 43,52 1,8 39,11 -30,-74 -7,-34 -53,-53z"/>
  <path class="fil4" d="M8512 731l47 -43c-30,-34 -2,-10 -55,-13l8 56z"/>
  <path class="fil8" d="M3925 1085l4 -3c46,-48 56,-38 -6,-72l2 75z"/>
  <polygon class="fil22" points="5931,964 5862,902 5871,963 "/>
  <path class="fil66" d="M452 718c45,-62 45,-7 0,-65 -41,53 -22,23 0,65z"/>
  <path class="fil110" d="M17069 570l-32 -5 17 55c72,-51 33,-32 15,-50z"/>
  <path class="fil111" d="M1197 1038c12,-26 56,24 -4,-62 -32,69 -21,24 4,62z"/>
  <polygon class="fil112" points="1515,968 1550,975 1533,915 "/>
  <path class="fil7" d="M7912 694c0,1 24,43 27,-2 2,-23 -36,-41 -27,2z"/>
  <path class="fil80" d="M2408 1039c14,-35 12,-21 -4,-62 -27,67 -24,14 4,62z"/>
  <path class="fil4" d="M7735 672l25 0c-2,-36 42,-3 -17,-39l-8 39z"/>
  <path class="fil113" d="M6024 953l-42 -44c-1,60 -36,22 42,44z"/>
  <path class="fil6" d="M1843 1036l6 -60c-28,14 -24,39 -6,60z"/>
  <path class="fil114" d="M2122 1089l24 -15 -38 -22c6,33 -8,16 14,37z"/>
  <polygon class="fil63" points="7624,955 7679,988 7629,938 "/>
  <polygon class="fil48" points="9223,1098 9265,1093 9224,1073 "/>
  <path class="fil4" d="M7629 825c54,-15 30,23 40,-34l-40 34z"/>
  <path class="fil60" d="M7760 672c19,37 -16,27 37,23l-37 -23z"/>
  <polygon class="fil24" points="12313,983 12283,940 "/>
  <path class="fil115" d="M7536 238l-30 0 0 -165 30 0 0 165zm0 -207l-30 0 0 -31 30 0 0 31z"/>
  <path id="1" class="fil115" d="M7589 73l3 24c5,-8 12,-15 20,-20 8,-5 18,-7 28,-7 18,0 32,5 42,15 9,11 14,27 14,49l0 104 -30 0 0 -104c0,-14 -2,-25 -8,-31 -6,-6 -15,-9 -27,-9 -9,0 -17,2 -23,6 -7,3 -12,9 -15,15l0 123 -30 0 0 -165 26 0z"/>
  <path id="2" class="fil115" d="M7919 238c-1,-5 -2,-10 -2,-13 -1,-4 -1,-8 -1,-12 -6,8 -13,15 -22,20 -9,5 -19,8 -29,8 -18,0 -31,-4 -40,-13 -9,-9 -13,-21 -13,-37 0,-15 6,-28 19,-37 13,-8 30,-13 52,-13l33 0 0 -16c0,-10 -3,-17 -9,-23 -6,-6 -15,-9 -25,-9 -10,0 -18,3 -24,8 -6,5 -9,10 -9,17l-28 1 -1 -1c0,-12 5,-23 17,-33 12,-10 27,-15 46,-15 19,0 34,5 46,14 11,10 17,23 17,41l0 80c0,5 0,11 0,17 1,5 2,10 4,16l-31 0zm-50 -22c11,0 21,-3 30,-9 8,-5 14,-12 17,-19l0 -27 -34 0c-12,0 -22,3 -29,10 -7,6 -11,13 -11,21 0,7 2,13 7,17 4,5 11,7 20,7z"/>
  <path id="3" class="fil115" d="M8066 193c0,-6 -3,-12 -8,-16 -5,-4 -14,-8 -28,-11 -20,-4 -35,-10 -45,-17 -11,-8 -16,-18 -16,-30 0,-14 6,-25 17,-35 12,-9 27,-14 45,-14 18,0 34,5 45,15 12,10 17,22 17,36l-1 0 -28 0c0,-7 -3,-13 -10,-19 -6,-6 -14,-9 -23,-9 -11,0 -19,3 -24,8 -5,4 -8,10 -8,17 0,6 2,11 7,15 5,3 14,7 28,10 20,4 36,10 46,18 10,7 16,18 16,30 0,15 -6,27 -18,36 -12,9 -27,14 -46,14 -22,0 -38,-5 -50,-16 -12,-11 -18,-23 -17,-37l0 -1 29 0c0,10 4,18 11,23 8,5 17,7 27,7 10,0 19,-2 25,-6 6,-5 9,-11 9,-18z"/>
  <path id="4" class="fil115" d="M8210 193c0,-6 -3,-12 -8,-16 -5,-4 -15,-8 -29,-11 -19,-4 -34,-10 -44,-17 -11,-8 -16,-18 -16,-30 0,-14 6,-25 17,-35 12,-9 26,-14 45,-14 18,0 33,5 45,15 12,10 17,22 17,36l-1 0 -28 0c0,-7 -3,-13 -10,-19 -6,-6 -14,-9 -23,-9 -11,0 -19,3 -24,8 -5,4 -8,10 -8,17 0,6 2,11 7,15 4,3 14,7 28,10 20,4 35,10 46,18 10,7 16,18 16,30 0,15 -6,27 -18,36 -12,9 -27,14 -47,14 -21,0 -37,-5 -49,-16 -12,-11 -18,-23 -18,-37l1 -1 28 0c1,10 5,18 12,23 8,5 16,7 26,7 11,0 19,-2 25,-6 7,-5 10,-11 10,-18z"/>
  <path id="5" class="fil115" d="M8251 154c0,-25 6,-45 19,-61 14,-15 31,-23 54,-23 23,0 41,8 54,23 14,16 20,36 20,61l0 3c0,25 -6,45 -20,60 -13,16 -31,24 -54,24 -22,0 -40,-8 -54,-24 -13,-15 -19,-35 -19,-60l0 -3zm30 3c0,18 3,32 11,43 7,12 18,17 32,17 15,0 26,-5 33,-17 8,-11 11,-25 11,-43l0 -3c0,-17 -4,-32 -11,-43 -7,-12 -18,-18 -33,-18 -14,0 -25,6 -32,18 -8,11 -11,26 -11,43l0 3z"/>
  <path id="6" class="fil115" d="M8481 217c9,0 17,-3 24,-9 7,-6 11,-13 11,-22l27 0 0 1c1,14 -5,26 -18,37 -13,11 -27,17 -44,17 -23,0 -41,-8 -54,-24 -12,-15 -18,-35 -18,-58l0 -7c0,-23 6,-43 19,-59 12,-15 30,-23 53,-23 18,0 34,5 45,17 12,11 18,25 17,42l0 1 -27 0c0,-10 -4,-19 -10,-26 -7,-7 -15,-11 -25,-11 -15,0 -25,6 -32,18 -7,11 -10,25 -10,41l0 7c0,16 3,30 10,41 6,12 17,17 32,17z"/>
  <path id="7" class="fil115" d="M8592 238l-30 0 0 -165 30 0 0 165zm0 -207l-30 0 0 -31 30 0 0 31z"/>
  <path id="8" class="fil115" d="M8720 238c-1,-5 -2,-10 -2,-13 -1,-4 -1,-8 -1,-12 -6,8 -13,15 -22,20 -9,5 -19,8 -29,8 -17,0 -30,-4 -39,-13 -9,-9 -14,-21 -14,-37 0,-15 7,-28 19,-37 13,-8 30,-13 52,-13l33 0 0 -16c0,-10 -3,-17 -9,-23 -6,-6 -14,-9 -25,-9 -10,0 -18,3 -24,8 -6,5 -9,10 -9,17l-28 1 0 -1c-1,-12 4,-23 16,-33 12,-10 28,-15 47,-15 18,0 33,5 45,14 11,10 17,23 17,41l0 80c0,5 0,11 1,17 0,5 2,10 3,16l-31 0zm-50 -22c11,0 21,-3 30,-9 9,-5 14,-12 17,-19l0 -27 -34 0c-12,0 -22,3 -29,10 -7,6 -11,13 -11,21 0,7 3,13 7,17 5,5 11,7 20,7z"/>
  <path id="9" class="fil115" d="M8813 33l0 40 31 0 0 22 -31 0 0 100c0,8 1,13 5,17 3,3 7,4 12,4 2,0 4,0 6,0 2,-1 4,-1 5,-2l5 21c-3,2 -6,3 -10,4 -5,1 -9,2 -13,2 -12,0 -22,-4 -29,-11 -8,-7 -11,-19 -11,-35l0 -100 -26 0 0 -22 26 0 0 -40 30 0z"/>
  <path id="10" class="fil115" d="M8889 238l-30 0 0 -165 30 0 0 165zm0 -207l-30 0 0 -31 30 0 0 31z"/>
  <path id="11" class="fil115" d="M8909 154c0,-25 7,-45 20,-61 13,-15 31,-23 54,-23 23,0 41,8 54,23 13,16 20,36 20,61l0 3c0,25 -7,45 -20,60 -13,16 -31,24 -54,24 -23,0 -41,-8 -54,-24 -13,-15 -20,-35 -20,-60l0 -3zm30 3c0,18 4,32 11,43 8,12 18,17 33,17 14,0 25,-5 33,-17 7,-11 11,-25 11,-43l0 -3c0,-17 -4,-32 -11,-43 -8,-12 -19,-18 -33,-18 -15,0 -25,6 -33,18 -7,11 -11,26 -11,43l0 3z"/>
  <path id="12" class="fil115" d="M9101 73l2 24c6,-8 12,-15 21,-20 8,-5 17,-7 28,-7 18,0 32,5 41,15 10,11 15,27 15,49l0 104 -30 0 0 -104c0,-14 -3,-25 -9,-31 -5,-6 -14,-9 -26,-9 -9,0 -17,2 -24,6 -6,3 -11,9 -15,15l0 123 -30 0 0 -165 27 0z"/>
  <polygon id="13" class="fil115" points="9371,178 9375,199 9376,199 9380,178 9413,73 9437,73 9470,178 9474,201 9475,201 9480,178 9505,73 9536,73 9488,238 9464,238 9431,137 9425,111 9424,111 9418,137 9386,238 9362,238 9314,73 9345,73 "/>
  <path id="14" class="fil115" d="M9578 238l-30 0 0 -165 30 0 0 165zm0 -207l-30 0 0 -31 30 0 0 31z"/>
  <path id="15" class="fil115" d="M9647 33l0 40 31 0 0 22 -31 0 0 100c0,8 2,13 5,17 3,3 7,4 13,4 1,0 3,0 5,0 2,-1 4,-1 6,-2l4 21c-2,2 -6,3 -10,4 -5,1 -9,2 -13,2 -12,0 -22,-4 -29,-11 -7,-7 -11,-19 -11,-35l0 -100 -26 0 0 -22 26 0 0 -40 30 0z"/>
  <path id="16" class="fil115" d="M9721 95c6,-8 13,-14 21,-19 8,-4 17,-6 27,-6 18,0 32,5 42,16 9,10 14,26 14,48l0 104 -30 0 0 -104c0,-14 -3,-24 -9,-30 -5,-7 -14,-10 -26,-10 -9,0 -16,2 -23,5 -7,4 -12,9 -16,15l0 124 -30 0 0 -238 30 0 0 95z"/>
  <path id="17" class="fil115" d="M9979 238l-30 0 0 -31 30 0 0 31zm0 -134l-30 0 0 -31 30 0 0 31z"/>
 </g>
</svg>
