<svg id="Layer_1" data-name="Layer 1" xmlns="http://www.w3.org/2000/svg" viewBox="0 0 1092.35 337.99"><defs><style>.cls-1{font-size:66.41px;fill:#8d44ac;font-family:Roboto-Black, Roboto;font-weight:800;}.cls-2{font-size:25px;font-family:Roboto-MediumItalic, Roboto;font-weight:500;font-style:italic;}.cls-2,.cls-6{fill:#fff;}.cls-3{letter-spacing:0.57em;}.cls-4{letter-spacing:-0.02em;}.cls-5{fill:#f29b12;}.cls-5,.cls-6{fill-rule:evenodd;}</style></defs><title>bar</title><text class="cls-1" transform="translate(0 319.99)"> </text><text class="cls-2" transform="translate(14.34 21.39)">WEB<tspan class="cls-3" x="51.5" y="0">	</tspan><tspan x="72" y="0">DESIGN</tspan></text><text class="cls-2" transform="translate(9.52 106.93)">PROGRAMMING</text><text class="cls-2" transform="translate(14.34 211.73)"><tspan class="cls-4">K</tspan><tspan x="14.76" y="0">OMPETENSI</tspan></text><path class="cls-5" d="M1339.67,1976.61H576a9,9,0,0,1-9-9h0a9,9,0,0,1,9-9h763.71a9,9,0,0,1,9,9h0A9,9,0,0,1,1339.67,1976.61Z" transform="translate(-259.87 -1956.27)"/><path class="cls-5" d="M1343.21,2073.18H579.5a9,9,0,0,1-9-9h0a9,9,0,0,1,9-9h763.71a9,9,0,0,1,9,9h0A9,9,0,0,1,1343.21,2073.18Z" transform="translate(-259.87 -1956.27)"/><path class="cls-5" d="M1343.21,2178.2H579.5a9,9,0,0,1-9-9h0a9,9,0,0,1,9-9h763.71a9,9,0,0,1,9,9h0A9,9,0,0,1,1343.21,2178.2Z" transform="translate(-259.87 -1956.27)"/><path class="cls-6" d="M1231.43,1975.35H574.7a7.76,7.76,0,0,1-7.74-7.74h0a7.76,7.76,0,0,1,7.74-7.74h656.73a7.76,7.76,0,0,1,7.74,7.74h0A7.76,7.76,0,0,1,1231.43,1975.35Z" transform="translate(-259.87 -1956.27)"/><path class="cls-6" d="M1281.79,2072.15H577.7a7.77,7.77,0,0,1-7.74-7.74h0a7.76,7.76,0,0,1,7.74-7.74h704.09a7.76,7.76,0,0,1,7.74,7.74h0A7.77,7.77,0,0,1,1281.79,2072.15Z" transform="translate(-259.87 -1956.27)"/><path class="cls-6" d="M1315.5,2176.94H579.7a7.76,7.76,0,0,1-7.74-7.74h0a7.77,7.77,0,0,1,7.74-7.74h735.8a7.77,7.77,0,0,1,7.74,7.74h0A7.76,7.76,0,0,1,1315.5,2176.94Z" transform="translate(-259.87 -1956.27)"/></svg>