<?xml version="1.0" encoding="UTF-8"?>
<!DOCTYPE svg PUBLIC "-//W3C//DTD SVG 1.1//EN" "http://www.w3.org/Graphics/SVG/1.1/DTD/svg11.dtd">
<!-- Creator: CorelDRAW X7 -->
<svg xmlns="http://www.w3.org/2000/svg" xml:space="preserve" width="15.9501in" height="11.3812in" version="1.1" style="shape-rendering:geometricPrecision; text-rendering:geometricPrecision; image-rendering:optimizeQuality; fill-rule:evenodd; clip-rule:evenodd"
viewBox="0 0 20606 14704"
 xmlns:xlink="http://www.w3.org/1999/xlink">
 <defs>
  <style type="text/css">
   <![CDATA[
    .fil1 {fill:white;fill-rule:nonzero}
    .fil2 {fill:url(#id0)}
    .fil0 {fill:url(#id1);fill-opacity:0.250980}
   ]]>
  </style>
  <linearGradient id="id0" gradientUnits="userSpaceOnUse" x1="2361.78" y1="14156.3" x2="18244.4" y2="547.237">
   <stop offset="0" style="stop-opacity:1; stop-color:#9B59B6"/>
   <stop offset="1" style="stop-opacity:1; stop-color:#34495E"/>
  </linearGradient>
  <linearGradient id="id1" gradientUnits="userSpaceOnUse" xlink:href="#id0" x1="2165.8" y1="14146.7" x2="18440.3" y2="556.784">
  </linearGradient>
 </defs>
 <g id="Layer_x0020_1">
  <metadata id="CorelCorpID_0Corel-Layer"/>
  <g id="_1201010783728">
   <path class="fil0" d="M0 795c0,0 2762,923 3683,61 921,-861 3070,-1374 5085,-41 2014,1333 2053,-1702 3779,-82 1727,1620 2437,1005 4452,-61 2014,-1067 3607,0 3607,0l0 12736c0,0 -2379,1312 -3607,-533 -1228,-1846 -3185,20 -4375,287 -1189,266 -2724,1107 -3991,328 -1266,-779 -729,1990 -2897,995 -2168,-995 -3002,-1805 -4086,-1292 -1084,512 -1535,276 -1535,276l-115 -12674z"/>
   <polygon class="fil1" points="9142,2644 8899,2644 8899,2912 8744,2912 8744,2246 9189,2246 9189,2365 8899,2365 8899,2525 9142,2525 "/>
   <path id="1" class="fil1" d="M9528 2911c-6,-10 -11,-22 -15,-35 -4,-13 -7,-26 -9,-41 -14,26 -30,47 -50,63 -20,16 -45,23 -77,24 -52,-1 -92,-14 -121,-40 -29,-27 -43,-64 -43,-110 0,-49 18,-87 55,-113 37,-27 93,-40 168,-40l64 0 0 -35c0,-21 -6,-38 -16,-49 -10,-11 -25,-17 -46,-17 -18,0 -31,4 -40,13 -8,8 -13,21 -13,39l-150 0 -1 -3c-2,-45 17,-83 57,-113 40,-31 92,-46 157,-46 62,0 111,15 149,46 38,30 57,74 57,131l0 186c0,26 2,51 7,73 4,23 11,45 20,68l-153 -1zm-109 -100c19,0 36,-4 50,-13 15,-9 25,-19 31,-32l0 -65 -63 0c-24,0 -42,6 -53,18 -11,12 -17,27 -17,45 0,14 5,26 15,34 9,9 22,13 37,13z"/>
   <path id="2" class="fil1" d="M9997 2773c0,-12 -7,-23 -21,-33 -14,-9 -39,-18 -76,-26 -58,-11 -101,-28 -130,-52 -29,-23 -44,-56 -44,-98 0,-43 18,-80 55,-110 36,-31 86,-46 148,-46 66,0 119,15 158,44 39,30 57,68 55,114l0 3 -150 0c0,-19 -5,-34 -15,-44 -10,-10 -26,-15 -48,-15 -16,0 -30,4 -41,13 -11,9 -16,20 -16,34 0,13 6,24 19,33 12,9 38,17 76,25 61,12 106,29 135,53 29,24 43,57 43,100 0,45 -20,82 -59,110 -40,29 -92,43 -157,44 -67,-1 -120,-18 -159,-52 -40,-34 -58,-72 -56,-114l0 -3 140 0c1,24 8,41 22,51 13,10 32,16 57,16 21,0 37,-5 48,-12 10,-9 16,-20 16,-35z"/>
   <path id="3" class="fil1" d="M10380 2912l-155 0 0 -495 155 0 0 495zm0 -610l-155 0 0 -103 155 0 0 103z"/>
   <polygon id="4" class="fil1" points="10636,2912 10481,2912 10481,2199 10636,2199 "/>
   <path id="5" class="fil1" d="M10893 2912l-155 0 0 -495 155 0 0 495zm0 -610l-155 0 0 -103 155 0 0 103z"/>
   <path id="6" class="fil1" d="M11165 2294l0 123 78 0 0 107 -78 0 0 227c0,18 4,30 11,38 7,8 17,12 29,12 8,0 14,0 19,-1 5,-1 10,-2 18,-4l10 115c-15,4 -29,6 -42,8 -12,2 -27,2 -44,3 -51,-1 -90,-14 -116,-41 -26,-27 -39,-70 -39,-129l0 -228 -70 0 0 -107 70 0 0 -123 154 0z"/>
   <path id="7" class="fil1" d="M11604 2911c-6,-10 -11,-22 -15,-35 -4,-13 -7,-26 -9,-41 -14,26 -30,47 -50,63 -20,16 -45,23 -77,24 -52,-1 -92,-14 -121,-40 -29,-27 -43,-64 -43,-110 0,-49 18,-87 55,-113 37,-27 93,-40 168,-40l64 0 0 -35c0,-21 -5,-38 -15,-49 -10,-11 -26,-17 -47,-17 -18,0 -31,4 -40,13 -8,8 -13,21 -13,39l-150 0 -1 -3c-2,-45 17,-83 57,-113 40,-31 92,-46 157,-46 62,0 111,15 149,46 38,30 57,74 57,131l0 186c0,26 2,51 7,73 4,23 11,45 20,68l-153 -1zm-109 -100c19,0 36,-4 50,-13 15,-9 25,-19 31,-32l0 -65 -63 0c-24,0 -42,6 -53,18 -11,12 -17,27 -17,45 0,14 5,26 15,34 10,9 22,13 37,13z"/>
   <path id="8" class="fil1" d="M12073 2773c0,-12 -7,-23 -21,-33 -14,-9 -39,-18 -76,-26 -57,-11 -101,-28 -130,-52 -29,-23 -44,-56 -44,-98 0,-43 18,-80 55,-110 36,-31 86,-46 149,-46 65,0 118,15 157,44 39,30 57,68 56,114l-1 3 -150 0c0,-19 -5,-34 -15,-44 -10,-10 -26,-15 -48,-15 -16,0 -30,4 -41,13 -11,9 -16,20 -16,34 0,13 6,24 19,33 12,9 38,17 76,25 61,12 106,29 135,53 29,24 43,57 43,100 0,45 -19,82 -59,110 -39,29 -92,43 -156,44 -68,-1 -121,-18 -160,-52 -39,-34 -58,-72 -56,-114l1 -3 139 0c1,24 8,41 22,51 13,10 33,16 58,16 20,0 36,-5 47,-12 10,-9 16,-20 16,-35z"/>
   <path class="fil2" d="M0 1057c0,0 2762,886 3683,59 921,-826 3070,-1319 5085,-39 2014,1280 2053,-1634 3779,-79 1727,1556 2437,965 4452,-59 2014,-1023 3607,0 3607,0l0 12226c0,0 -2379,1260 -3607,-512 -1228,-1772 -3185,20 -4375,276 -1189,256 -2724,1063 -3991,315 -1266,-748 -729,1910 -2897,955 -2168,-955 -3002,-1733 -4086,-1240 -1084,492 -1535,265 -1535,265l-115 -12167z"/>
  </g>
 </g>
</svg>
